<?xml version="1.0" encoding="utf-8"?>
<!-- Generator: Adobe Illustrator 22.1.0, SVG Export Plug-In . SVG Version: 6.00 Build 0)  -->
<svg version="1.1" id="Layer_1" xmlns="http://www.w3.org/2000/svg" xmlns:xlink="http://www.w3.org/1999/xlink" x="0px" y="0px"
	 viewBox="0 0 11 19" style="enable-background:new 0 0 11 19;" xml:space="preserve">
<style type="text/css">
	.st0{fill:#FFFFFF;}
</style>
<title>Fill 1 Copy</title>
<desc>Created with Sketch.</desc>
<g id="Page-1">
	<g id="Home" transform="translate(-722.000000, -1336.000000)">
		<path id="Fill-1-Copy" class="st0" d="M732.8,1345.1c0.1,0.1,0.2,0.3,0.2,0.4s-0.1,0.3-0.2,0.4l-8.8,8.9c-0.1,0.1-0.3,0.2-0.4,0.2
			s-0.3-0.1-0.4-0.2l-0.9-1c-0.1-0.1-0.2-0.3-0.2-0.4c0-0.2,0.1-0.3,0.2-0.4l7.4-7.5l-7.4-7.5c-0.1-0.1-0.2-0.3-0.2-0.4
			c0-0.2,0.1-0.3,0.2-0.4l0.9-1c0.1-0.1,0.3-0.2,0.4-0.2s0.3,0.1,0.4,0.2L732.8,1345.1z"/>
	</g>
</g>
</svg>
