<?xml version="1.0" encoding="UTF-8"?>
<svg width="11px" height="19px" viewBox="0 0 11 19" version="1.1" xmlns="http://www.w3.org/2000/svg" xmlns:xlink="http://www.w3.org/1999/xlink">
    <!-- Generator: Sketch 52.1 (67048) - http://www.bohemiancoding.com/sketch -->
    <title>Fill 1 Copy</title>
    <desc>Created with Sketch.</desc>
    <g id="Page-1" stroke="none" stroke-width="1" fill="none" fill-rule="evenodd">
        <g id="Home" transform="translate(-722.000000, -1336.000000)" fill="#011502">
            <path d="M732.810996,1345.06212 C732.936999,1345.18905 733,1345.335 733,1345.5 C733,1345.665 732.936999,1345.81095 732.810996,1345.93788 L724.003437,1354.80962 C723.877434,1354.93654 723.732533,1355 723.568729,1355 C723.404925,1355 723.260024,1354.93654 723.134021,1354.80962 L722.189003,1353.85772 C722.063001,1353.73079 722,1353.58484 722,1353.41984 C722,1353.25484 722.063001,1353.10889 722.189003,1352.98196 L729.616839,1345.5 L722.189003,1338.01803 C722.063001,1337.89111 722,1337.74516 722,1337.58016 C722,1337.41516 722.063001,1337.2692 722.189003,1337.14228 L723.134021,1336.19038 C723.260024,1336.06346 723.404925,1336 723.568729,1336 C723.732533,1336 723.877434,1336.06346 724.003437,1336.19038 L732.810996,1345.06212 Z" id="Fill-1-Copy"></path>
        </g>
    </g>
</svg>