<svg xmlns="http://www.w3.org/2000/svg" viewBox="0 0 303.89 61.01"><defs><style>.a{fill:#bfe2eb;}.b{fill:#23272b;}</style></defs><title>Asset 1</title><path class="a" d="M61,61H0V0H61ZM2,59H59V2H2Z"/><path class="b" d="M41.51,22.39a1.3,1.3,0,0,0,1.3-1.3v-5l3.43-2.91L52.86,22a1.09,1.09,0,0,0,.88.44h.15a1.1,1.1,0,0,0,.88-1.77l-6.69-8.93,4.67-3.95A1.11,1.11,0,0,0,51.32,6l-8.51,7.13V7.08a1.3,1.3,0,0,0-2.6,0v14A1.3,1.3,0,0,0,41.51,22.39Z"/><path class="b" d="M107.62,10.41c0-2.91-2-4.63-5.43-4.63H91.52a.8.8,0,0,0-.8.8V21.19a1.21,1.21,0,0,0,1.21,1.2h.19a1.2,1.2,0,0,0,1.2-1.2V15.12h7.27L105,21.84a1.18,1.18,0,0,0,1,.55,1.2,1.2,0,0,0,1-1.84l-3.47-5.47A4.67,4.67,0,0,0,107.62,10.41Zm-5.43,2.28H93.32V8.18h8.87c1.79,0,2.75.8,2.75,2.23S104,12.69,102.19,12.69Z"/><path class="b" d="M130.21,5.74h-11.3a.8.8,0,0,0-.8.8V21.09a1.3,1.3,0,0,0,2.6,0v-6h9.78c3.23,0,5.15-2.11,5.15-4.75C135.64,7.46,133.64,5.74,130.21,5.74Zm0,7h-9.5V8.18h9.62c1.72,0,2.64.83,2.64,2.23S132,12.69,130.21,12.69Z"/><path class="b" d="M54.09,43.9H42.91V30.84a1.2,1.2,0,0,0-1.2-1.2h-.2a1.2,1.2,0,0,0-1.2,1.2V45.5a.79.79,0,0,0,.8.79h13a1.2,1.2,0,1,0,0-2.39Z"/><path class="b" d="M74,30.37a1.34,1.34,0,0,0-1.19-.73,1.36,1.36,0,0,0-1.19.73L64.46,44.51a1.23,1.23,0,0,0,2.19,1.11l1.82-3.56h8.78l1.82,3.56a1.23,1.23,0,0,0,1.09.67h0a1.23,1.23,0,0,0,1.09-1.79Zm-4.45,9.5,3.28-6.39,3.23,6.39Z"/><path class="b" d="M134.51,37.45h-6.67a1.18,1.18,0,0,0-1.19,1.16h0a1.17,1.17,0,0,0,1.19,1.15h4.85V41.5c-.92,1.46-3.5,2.66-6.48,2.66-4.72,0-7.74-2.74-7.74-6.17s3.06-6.17,7.74-6.17a9,9,0,0,1,6.11,2.11,1.25,1.25,0,0,0,1.57.12,1.17,1.17,0,0,0,.11-1.84,11.09,11.09,0,0,0-7.79-2.71c-6.23,0-10.4,3.74-10.4,8.53s4.13,8.48,10.4,8.48c4.09,0,7.19-1.46,9.1-4.2V38.22A.78.78,0,0,0,134.51,37.45Z"/><path class="b" d="M160,43.9H147.42V39.05h7.34a1.2,1.2,0,1,0,0-2.39h-7.34V32.08h11.82a1.19,1.19,0,0,0,1.19-1.2v0a1.19,1.19,0,0,0-1.19-1.2H145.62a.8.8,0,0,0-.8.8V45.5a.79.79,0,0,0,.8.79H160a1.2,1.2,0,1,0,0-2.39Z"/><path class="b" d="M186.92,34.31c0-2.91-2-4.63-5.43-4.63H170.83a.8.8,0,0,0-.8.8V45.09a1.2,1.2,0,0,0,1.2,1.2h.2a1.2,1.2,0,0,0,1.2-1.2V39h7.27l4.35,6.72a1.2,1.2,0,0,0,2-1.3L182.81,39A4.68,4.68,0,0,0,186.92,34.31Zm-5.43,2.28h-8.86V32.08h8.86c1.8,0,2.76.8,2.76,2.23S183.29,36.59,181.49,36.59Z"/><path class="b" d="M213,29.64a1.43,1.43,0,0,0-1.16.61l-6.4,9.14L199,30.25a1.42,1.42,0,0,0-2.58.81V45a1.3,1.3,0,0,0,1.3,1.29h0a1.3,1.3,0,0,0,1.3-1.29V34.31l5.73,8.32a.8.8,0,0,0,1.32,0l5.73-8.32V45a1.3,1.3,0,0,0,2.59,0V31.06A1.42,1.42,0,0,0,213,29.64Z"/><path class="b" d="M232.7,30.31a1.23,1.23,0,0,0-1.1-.67h-.13a1.23,1.23,0,0,0-1.09.67l-7.22,14.2a1.23,1.23,0,0,0,2.19,1.11l1.81-3.56H236l1.81,3.56a1.24,1.24,0,0,0,1.1.67h0A1.23,1.23,0,0,0,240,44.5Zm-4.42,9.56,3.28-6.39,3.23,6.39Z"/><path class="b" d="M262.52,29.64a1.28,1.28,0,0,0-1.28,1.28V41.34L250.94,30a1,1,0,0,0-.7-.31.94.94,0,0,0-.94.94V45a1.28,1.28,0,0,0,2.56,0V34.63L262.16,46a1,1,0,0,0,.69.3h0a1,1,0,0,0,.94-.94V30.92A1.29,1.29,0,0,0,262.52,29.64Z"/><path class="b" d="M105.85,29.64a1.28,1.28,0,0,0-1.27,1.28V41.56L92.35,30a1,1,0,0,0-.7-.31.94.94,0,0,0-.94.94V45a1.28,1.28,0,0,0,2.56,0V34.36L105.49,46a1,1,0,0,0,.7.3h0a.94.94,0,0,0,.94-.94V30.92A1.28,1.28,0,0,0,105.85,29.64Z"/><path class="b" d="M74,6.47a1.34,1.34,0,0,0-2.38,0L64.46,20.61a1.23,1.23,0,1,0,2.19,1.12l1.82-3.56h8.78l1.82,3.56a1.23,1.23,0,0,0,1.09.67h0a1.23,1.23,0,0,0,1.09-1.79ZM69.58,16l3.28-6.39L76.09,16Z"/><path class="b" d="M160.75,20.11A7.26,7.26,0,0,1,158.22,19a23.06,23.06,0,0,0,2.61-4,1.1,1.1,0,0,0-.46-1.48,1.14,1.14,0,0,0-1.54.48,14.93,14.93,0,0,1-2.44,3.65,42.1,42.1,0,0,1-4.07-4,4.41,4.41,0,0,0,3.09-4.27c0-2.34-1.61-3.79-4.21-3.79a3.62,3.62,0,0,0-3.93,3.64,5.62,5.62,0,0,0,1,3.17c-3,1-4.55,2.81-4.55,5.26,0,3.23,2.15,5.09,5.9,5.09a11.08,11.08,0,0,0,6.65-2,9,9,0,0,0,3.93,1.86,1.24,1.24,0,0,0,1.5-1.18A1.21,1.21,0,0,0,160.75,20.11ZM151.32,7.65c.19,0,1.79,0,1.79,1.51s-1.19,2.08-2.4,2.49a3.73,3.73,0,0,1-1.13-2.36A1.59,1.59,0,0,1,151.32,7.65Zm-1.44,12.74c-1.41,0-3.77-.36-3.77-2.78,0-2,2-2.76,3.66-3.31a51.12,51.12,0,0,0,4.6,4.8A9.27,9.27,0,0,1,149.88,20.39Z"/><path class="b" d="M284.1,44.65a.92.92,0,0,0-.93.93.91.91,0,0,0,.93.92.89.89,0,0,0,.92-.92A.91.91,0,0,0,284.1,44.65Z"/><path class="b" d="M303,44.65a.92.92,0,0,0-.93.93.91.91,0,0,0,.93.92.89.89,0,0,0,.92-.92A.91.91,0,0,0,303,44.65Z"/><path class="b" d="M279.82,37.79h-5.65a.58.58,0,0,0-.58.58v7.27a.83.83,0,1,0,1.65,0V43.08H280a2.54,2.54,0,0,0,2.75-2.55A2.67,2.67,0,0,0,279.82,37.79Zm0,3.72h-4.58V39.36h4.64A1.12,1.12,0,0,1,281,40.55C281,41.34,280.37,41.51,279.82,41.51Z"/><path class="b" d="M295,38.84a4.3,4.3,0,0,1,2.95,1,.8.8,0,0,0,1,.08.77.77,0,0,0,.32-.59.78.78,0,0,0-.25-.64,5.61,5.61,0,0,0-4-1.45c-3.13,0-5.41,1.93-5.41,4.59s2.28,4.59,5.41,4.59A5.61,5.61,0,0,0,299,45a.78.78,0,0,0,.25-.64.73.73,0,0,0-.32-.58.79.79,0,0,0-1,.08,4.34,4.34,0,0,1-2.95,1c-2.16,0-3.72-1.27-3.72-3.06S292.83,38.84,295,38.84Z"/></svg>